<svg xmlns="http://www.w3.org/2000/svg" width="64" height="64" viewBox="0 0 64 64"><defs><linearGradient id="sn75a" x1="0" x2="64" y1="32" y2="32" gradientUnits="userSpaceOnUse"><stop offset="0" stop-color="#b759d2"/><stop offset="1" stop-color="#6baee8"/></linearGradient></defs><g><g><g><path fill="#252831" d="M32 0c17.673 0 32 14.327 32 32 0 17.673-14.327 32-32 32C14.327 64 0 49.673 0 32 0 14.327 14.327 0 32 0z"/><path fill="url(#sn75a)" d="M32 0c17.673 0 32 14.327 32 32 0 17.673-14.327 32-32 32C14.327 64 0 49.673 0 32 0 14.327 14.327 0 32 0z"/></g><g><path fill="#fff" d="M26.606 42.526L41.394 32 26.606 21.475z"/><path fill="none" stroke="#fff" stroke-linecap="round" stroke-linejoin="round" stroke-miterlimit="20" stroke-width="3.5" d="M26.606 42.526v0L41.394 32v0L26.606 21.475v0z"/></g></g></g></svg>