<svg xmlns="http://www.w3.org/2000/svg" width="22" height="23" viewBox="0 0 22 23"><g><g><path fill="#fefefe" d="M10.862 20.49c-1.449 1.07-3.442 1.169-4.049.105-.461-.81-.305-1.728-.125-2.793.198-1.16.421-2.477-.29-3.71-1.197-2.075-3.826-1.982-5.798-.67l.939 1.463c.814-.542 1.751-.776 2.448-.61 1.623.388 1.13 2.527 1.011 3.23-.208 1.223-.442 2.61.33 3.968 1.221 2.142 4.497 2.076 6.713.316a20.443 20.443 0 0 1-1.179-1.3zm10.538.43l-3.456-6.795c-.008.004-1.938.97-2.027 1.011-2.199 1.087-5.876-6.22-3.726-7.393l2.045-1.025L10.808-.1 8.738.94c-7.07 3.754 3.358 24.38 10.59 21.013.119-.055 2.064-1.03 2.072-1.033z"/><path fill="#fff" d="M10.862 20.49c-1.449 1.07-3.442 1.169-4.049.105-.461-.81-.305-1.728-.125-2.793.198-1.16.421-2.477-.29-3.71-1.197-2.075-3.826-1.982-5.798-.67l.939 1.463c.814-.542 1.751-.776 2.448-.61 1.623.388 1.13 2.527 1.011 3.23-.208 1.223-.442 2.61.33 3.968 1.221 2.142 4.497 2.076 6.713.316a20.443 20.443 0 0 1-1.179-1.3zm10.538.43l-3.456-6.795c-.008.004-1.938.97-2.027 1.011-2.199 1.087-5.876-6.22-3.726-7.393l2.045-1.025L10.808-.1 8.738.94c-7.07 3.754 3.358 24.38 10.59 21.013.119-.055 2.064-1.03 2.072-1.033z"/></g></g></svg>