<svg xmlns="http://www.w3.org/2000/svg" width="22" height="22" viewBox="0 0 22 22"><g><g><path fill="#71747a" d="M14.206 8.525c-.016 1.269-.788 2.101-1.408 2.77-.83.894-.869 1.389-.857 1.997h-1.838c-.006-1.352.018-1.948 1.312-3.179.525-.5.94-.893.882-1.67-.053-.738-.67-1.124-1.25-1.124-.65 0-1.41.483-1.41 1.846H7.793c0-2.2 1.293-3.622 3.291-3.622.95 0 1.78.311 2.338.876.523.53.794 1.258.784 2.106zm-2.06 7.058a1.146 1.146 0 1 1-2.292.001 1.146 1.146 0 0 1 2.292 0zM22 11c0 6.076-4.925 11-11 11S0 17.076 0 11 4.925 0 11 0s11 4.924 11 11zM1.833 11c0 5.055 4.113 9.167 9.167 9.167 5.054 0 9.167-4.112 9.167-9.167S16.054 1.833 11 1.833c-5.054 0-9.167 4.112-9.167 9.167z"/></g></g></svg>